<?xml version="1.0" standalone="no"?>
<!DOCTYPE svg PUBLIC "-//W3C//DTD SVG 20010904//EN"
 "http://www.w3.org/TR/2001/REC-SVG-20010904/DTD/svg10.dtd">
<svg version="1.0" xmlns="http://www.w3.org/2000/svg"
 width="32.000000pt" height="32.000000pt" viewBox="0 0 32.000000 32.000000"
 preserveAspectRatio="xMidYMid meet">

<g transform="translate(0.000000,32.000000) scale(0.100000,-0.100000)"
fill="#000000" stroke="none">
<path d="M93 289 c-30 -15 -48 -33 -62 -63 -26 -53 -26 -79 0 -132 21 -45 81
-84 129 -84 48 0 108 39 129 84 26 53 26 79 0 132 -15 31 -32 48 -63 63 -53
26 -80 26 -133 0z m128 -14 c64 -34 87 -120 49 -182 -50 -83 -170 -83 -220 0
-68 111 55 242 171 182z"/>
<path d="M60 160 c0 -46 2 -50 24 -50 28 0 40 14 42 50 1 33 -13 50 -42 50
-22 0 -24 -4 -24 -50z m50 20 c0 -5 -7 -10 -15 -10 -8 0 -15 5 -15 10 0 6 7
10 15 10 8 0 15 -4 15 -10z m0 -40 c0 -5 -7 -10 -15 -10 -8 0 -15 5 -15 10 0
6 7 10 15 10 8 0 15 -4 15 -10z"/>
<path d="M150 160 c0 -27 5 -50 10 -50 6 0 10 23 10 50 0 28 -4 50 -10 50 -5
0 -10 -22 -10 -50z"/>
<path d="M206 194 c-9 -8 -16 -24 -16 -34 0 -19 25 -50 40 -50 15 0 40 31 40
50 0 19 -25 50 -40 50 -5 0 -16 -7 -24 -16z m39 -34 c0 -27 -22 -39 -31 -16
-8 22 3 49 19 43 6 -2 12 -14 12 -27z"/>
</g>
</svg>
