<?xml version="1.0" standalone="no"?>
<!DOCTYPE svg PUBLIC "-//W3C//DTD SVG 20010904//EN"
 "http://www.w3.org/TR/2001/REC-SVG-20010904/DTD/svg10.dtd">
<svg version="1.0" xmlns="http://www.w3.org/2000/svg"
 width="52.000000pt" height="52.000000pt" viewBox="0 0 52.000000 52.000000"
 preserveAspectRatio="xMidYMid meet">

<g transform="translate(0.000000,52.000000) scale(0.100000,-0.100000)"
fill="#000000" stroke="none">
<path d="M228 485 c-104 -38 -107 -41 -142 -105 -25 -45 -26 -53 -15 -92 6
-24 15 -51 21 -61 8 -16 12 -14 34 18 13 20 23 42 22 48 -1 7 9 24 24 38 22
22 32 25 64 20 l38 -6 -40 -40 c-22 -22 -53 -48 -68 -58 -41 -28 -54 -62 -31
-87 24 -26 45 -25 86 5 19 13 57 35 84 48 65 31 90 59 120 137 14 35 32 71 40
80 13 15 13 19 -8 38 -24 23 -98 53 -126 51 -9 -1 -55 -16 -103 -34z"/>
<path d="M91 141 c-33 -61 19 -141 90 -141 69 0 120 81 88 141 -10 20 -10 20
-43 -1 -42 -25 -66 -25 -99 0 -26 20 -26 20 -36 1z"/>
</g>
</svg>
